<svg xmlns="http://www.w3.org/2000/svg" xmlns:xlink="http://www.w3.org/1999/xlink" width="1080" zoomAndPan="magnify" viewBox="0 0 810 809.999993" height="1080" preserveAspectRatio="xMidYMid meet" version="1.0"><defs><g/><clipPath id="id1"><path d="M 103.480469 103.480469 L 706.480469 103.480469 L 706.480469 706.480469 L 103.480469 706.480469 Z M 103.480469 103.480469 " clip-rule="nonzero"/></clipPath><clipPath id="id2"><path d="M 184 292 L 247 292 L 247 329.15625 L 184 329.15625 Z M 184 292 " clip-rule="nonzero"/></clipPath><clipPath id="id3"><path d="M 209 284.90625 L 221 284.90625 L 221 296 L 209 296 Z M 209 284.90625 " clip-rule="nonzero"/></clipPath><clipPath id="id4"><path d="M 182.0625 300 L 189 300 L 189 307 L 182.0625 307 Z M 182.0625 300 " clip-rule="nonzero"/></clipPath></defs><g clip-path="url(#id1)"><path fill="rgb(100%, 100%, 100%)" d="M 404.980469 706.480469 C 238.78125 706.480469 103.480469 571.175781 103.480469 404.980469 C 103.480469 238.78125 238.78125 103.480469 404.980469 103.480469 C 571.175781 103.480469 706.480469 238.78125 706.480469 404.980469 C 706.480469 571.175781 571.175781 706.480469 404.980469 706.480469 Z M 404.980469 107.933594 C 241.160156 107.933594 107.933594 241.160156 107.933594 404.980469 C 107.933594 568.800781 241.160156 702.023438 404.980469 702.023438 C 568.800781 702.023438 702.023438 568.800781 702.023438 404.980469 C 702.023438 241.160156 568.800781 107.933594 404.980469 107.933594 Z M 404.980469 107.933594 " fill-opacity="1" fill-rule="nonzero"/></g><g fill="rgb(0%, 0%, 0%)" fill-opacity="1"><g transform="translate(183.873567, 463.949293)"><g><path d="M 5.546875 0 L 5.546875 -125.375 L 55.75 -125.375 L 55.75 -101 L 30.796875 -101 L 30.796875 -81 L 54.4375 -81 L 54.4375 -56.921875 L 30.796875 -56.921875 L 30.796875 0 Z M 5.546875 0 "/></g></g></g><g fill="rgb(0%, 0%, 0%)" fill-opacity="1"><g transform="translate(242.110431, 463.949293)"><g><path d="M 5.546875 0 L 5.546875 -125.375 L 30.65625 -125.375 L 30.65625 -21.3125 L 56.484375 -21.3125 L 56.484375 0 Z M 5.546875 0 "/></g></g></g><g fill="rgb(0%, 0%, 0%)" fill-opacity="1"><g transform="translate(300.055378, 463.949293)"><g><path d="M 2.1875 0 L 14.296875 -125.375 L 56.78125 -125.375 L 68.75 0 L 44.953125 0 L 43.203125 -20.28125 L 28.015625 -20.28125 L 26.5625 0 Z M 29.921875 -40.28125 L 41.3125 -40.28125 L 35.765625 -104.0625 L 34.59375 -104.0625 Z M 29.921875 -40.28125 "/></g></g></g><g fill="rgb(0%, 0%, 0%)" fill-opacity="1"><g transform="translate(370.844543, 463.949293)"><g><path d="M 34.59375 1.171875 C 24.28125 1.171875 16.617188 -1.742188 11.609375 -7.578125 C 6.597656 -13.421875 4.09375 -22.082031 4.09375 -33.5625 L 4.09375 -125.375 L 28.453125 -125.375 L 28.453125 -34.59375 C 28.453125 -30.601562 28.84375 -27.488281 29.625 -25.25 C 30.40625 -23.007812 32.0625 -21.890625 34.59375 -21.890625 C 37.125 -21.890625 38.773438 -22.984375 39.546875 -25.171875 C 40.328125 -27.359375 40.71875 -30.5 40.71875 -34.59375 L 40.71875 -125.375 L 65.09375 -125.375 L 65.09375 -33.5625 C 65.09375 -22.082031 62.585938 -13.421875 57.578125 -7.578125 C 52.566406 -1.742188 44.90625 1.171875 34.59375 1.171875 Z M 34.59375 1.171875 "/></g></g></g><g fill="rgb(0%, 0%, 0%)" fill-opacity="1"><g transform="translate(440.028172, 463.949293)"><g><path d="M 5.546875 0 L 5.546875 -125.375 L 31.375 -125.375 L 42.90625 -65.390625 L 42.90625 -125.375 L 67.140625 -125.375 L 67.140625 0 L 42.625 0 L 30.0625 -62.765625 L 30.0625 0 Z M 5.546875 0 "/></g></g></g><g fill="rgb(0%, 0%, 0%)" fill-opacity="1"><g transform="translate(512.714768, 463.949293)"><g><path d="M 16.34375 0 L 16.34375 -101.296875 L 1.453125 -101.296875 L 1.453125 -125.375 L 56.34375 -125.375 L 56.34375 -101.296875 L 41.453125 -101.296875 L 41.453125 0 Z M 16.34375 0 "/></g></g></g><g fill="rgb(0%, 0%, 0%)" fill-opacity="1"><g transform="translate(570.513746, 463.949293)"><g><path d="M 2.1875 0 L 14.296875 -125.375 L 56.78125 -125.375 L 68.75 0 L 44.953125 0 L 43.203125 -20.28125 L 28.015625 -20.28125 L 26.5625 0 Z M 29.921875 -40.28125 L 41.3125 -40.28125 L 35.765625 -104.0625 L 34.59375 -104.0625 Z M 29.921875 -40.28125 "/></g></g></g><g clip-path="url(#id2)"><path fill="rgb(96.469116%, 54.899597%, 11.369324%)" d="M 244.050781 303.273438 C 243.351562 306.464844 241.121094 315.46875 238.082031 315.46875 C 234.386719 315.46875 233.574219 300.503906 233.574219 300.503906 L 231.394531 300.316406 C 231.394531 300.316406 230.296875 316.574219 224.625 316.574219 C 218.953125 316.574219 218.027344 292.003906 218.027344 292.003906 L 212.046875 292.003906 C 212.046875 292.003906 211.125 316.574219 205.453125 316.574219 C 199.777344 316.574219 198.679688 300.316406 198.679688 300.316406 L 196.503906 300.503906 C 196.503906 300.503906 195.691406 315.46875 191.996094 315.46875 C 188.957031 315.46875 186.722656 306.464844 186.027344 303.273438 L 184.054688 303.273438 C 186.085938 309.015625 186.851562 329.140625 186.851562 329.140625 L 243.226562 329.140625 C 243.226562 329.140625 243.988281 309.015625 246.019531 303.273438 L 244.050781 303.273438 " fill-opacity="1" fill-rule="nonzero"/></g><g clip-path="url(#id3)"><path fill="rgb(96.469116%, 54.899597%, 11.369324%)" d="M 220.273438 290.113281 C 220.273438 292.992188 217.929688 295.328125 215.039062 295.328125 C 212.144531 295.328125 209.800781 292.992188 209.800781 290.113281 C 209.800781 287.230469 212.144531 284.894531 215.039062 284.894531 C 217.929688 284.894531 220.273438 287.230469 220.273438 290.113281 " fill-opacity="1" fill-rule="nonzero"/></g><path fill="rgb(96.469116%, 54.899597%, 11.369324%)" d="M 201.226562 299.117188 C 201.226562 301.210938 199.527344 302.902344 197.425781 302.902344 C 195.328125 302.902344 193.625 301.210938 193.625 299.117188 C 193.625 297.027344 195.328125 295.328125 197.425781 295.328125 C 199.527344 295.328125 201.226562 297.027344 201.226562 299.117188 " fill-opacity="1" fill-rule="nonzero"/><g clip-path="url(#id4)"><path fill="rgb(96.469116%, 54.899597%, 11.369324%)" d="M 188.601562 303.492188 C 188.601562 305.261719 187.164062 306.695312 185.390625 306.695312 C 183.617188 306.695312 182.179688 305.261719 182.179688 303.492188 C 182.179688 301.726562 183.617188 300.289062 185.390625 300.289062 C 187.164062 300.289062 188.601562 301.726562 188.601562 303.492188 " fill-opacity="1" fill-rule="nonzero"/></g><path fill="rgb(96.469116%, 54.899597%, 11.369324%)" d="M 228.902344 299.117188 C 228.902344 301.210938 230.601562 302.902344 232.699219 302.902344 C 234.800781 302.902344 236.503906 301.210938 236.503906 299.117188 C 236.503906 297.027344 234.800781 295.328125 232.699219 295.328125 C 230.601562 295.328125 228.902344 297.027344 228.902344 299.117188 " fill-opacity="1" fill-rule="nonzero"/><path fill="rgb(96.469116%, 54.899597%, 11.369324%)" d="M 241.527344 303.492188 C 241.527344 305.261719 242.964844 306.695312 244.734375 306.695312 C 246.511719 306.695312 247.945312 305.261719 247.945312 303.492188 C 247.945312 301.726562 246.511719 300.289062 244.734375 300.289062 C 242.964844 300.289062 241.527344 301.726562 241.527344 303.492188 " fill-opacity="1" fill-rule="nonzero"/></svg>